<svg width="27" height="31" viewBox="0 0 27 31" fill="none" xmlns="http://www.w3.org/2000/svg">
<mask id="mask0_146_3256" style="mask-type:luminance" maskUnits="userSpaceOnUse" x="0" y="0" width="27" height="31">
<path d="M26.1429 0H0V30.0159H26.1429V0Z" fill="white"/>
</mask>
<g mask="url(#mask0_146_3256)">
<mask id="mask1_146_3256" style="mask-type:luminance" maskUnits="userSpaceOnUse" x="0" y="2" width="26" height="26">
<path d="M0.117188 2.08398H25.8516V27.8184H0.117188V2.08398Z" fill="white"/>
</mask>
<g mask="url(#mask1_146_3256)">
<mask id="mask2_146_3256" style="mask-type:luminance" maskUnits="userSpaceOnUse" x="0" y="2" width="26" height="26">
<path d="M12.9844 2.08398C5.87754 2.08398 0.117188 7.84434 0.117188 14.9512C0.117188 22.058 5.87754 27.8184 12.9844 27.8184C20.0912 27.8184 25.8516 22.058 25.8516 14.9512C25.8516 7.84434 20.0912 2.08398 12.9844 2.08398Z" fill="white"/>
</mask>
<g mask="url(#mask2_146_3256)">
<mask id="mask3_146_3256" style="mask-type:luminance" maskUnits="userSpaceOnUse" x="0" y="1" width="27" height="28">
<path d="M26.1429 1.93652H0V28.0794H26.1429V1.93652Z" fill="white"/>
</mask>
<g mask="url(#mask3_146_3256)">
<mask id="mask4_146_3256" style="mask-type:luminance" maskUnits="userSpaceOnUse" x="0" y="2" width="26" height="26">
<path d="M0.117188 2.08398H25.8516V27.8184H0.117188V2.08398Z" fill="white"/>
</mask>
<g mask="url(#mask4_146_3256)">
<mask id="mask5_146_3256" style="mask-type:luminance" maskUnits="userSpaceOnUse" x="0" y="2" width="26" height="26">
<path d="M12.9844 2.08398C5.87754 2.08398 0.117188 7.84434 0.117188 14.9512C0.117188 22.058 5.87754 27.8184 12.9844 27.8184C20.0912 27.8184 25.8516 22.058 25.8516 14.9512C25.8516 7.84434 20.0912 2.08398 12.9844 2.08398Z" fill="white"/>
</mask>
<g mask="url(#mask5_146_3256)">
<path d="M0.117188 2.08398H25.8516V27.8184H0.117188V2.08398Z" fill="white"/>
</g>
</g>
</g>
</g>
</g>
<path d="M7.45603 19.3171C7.93448 18.9389 8.15386 18.7649 8.11414 18.7952C9.49088 17.6511 10.5764 16.7131 11.3744 15.9812C12.1706 15.2512 12.8438 14.4834 13.3942 13.6816C13.9426 12.876 14.2187 12.0931 14.2187 11.3366C14.2187 10.7579 14.0844 10.3059 13.8178 9.98257C13.5492 9.66107 13.1464 9.49844 12.6074 9.49844C12.0723 9.49844 11.6543 9.70079 11.3517 10.1036C11.0492 10.5026 10.8979 11.0681 10.8979 11.798H7.41064C7.4409 10.6029 7.69809 9.60434 8.18222 8.80251C8.67013 7.99689 9.31122 7.40308 10.1036 7.02485C10.8998 6.64285 11.7848 6.44995 12.7587 6.44995C14.4324 6.44995 15.6956 6.88113 16.5485 7.74348C17.3995 8.60205 17.8269 9.72159 17.8269 11.1021C17.8269 12.6112 17.3126 14.0107 16.2838 15.3004C15.2588 16.5864 13.9501 17.8421 12.3578 19.0675H18.0614V22.0025H7.45603V19.3171Z" fill="black"/>
</g>
</svg>
