<svg width="27" height="31" viewBox="0 0 27 31" fill="none" xmlns="http://www.w3.org/2000/svg">
<mask id="mask0_146_3287" style="mask-type:luminance" maskUnits="userSpaceOnUse" x="0" y="0" width="27" height="31">
<path d="M26.627 0H0V30.0159H26.627V0Z" fill="white"/>
</mask>
<g mask="url(#mask0_146_3287)">
<mask id="mask1_146_3287" style="mask-type:luminance" maskUnits="userSpaceOnUse" x="0" y="1" width="27" height="27">
<path d="M0.438721 1.80408H26.175V27.5385H0.438721V1.80408Z" fill="white"/>
</mask>
<g mask="url(#mask1_146_3287)">
<mask id="mask2_146_3287" style="mask-type:luminance" maskUnits="userSpaceOnUse" x="0" y="1" width="27" height="27">
<path d="M13.3059 1.80408C6.19908 1.80408 0.438721 7.56443 0.438721 14.6713C0.438721 21.7781 6.19908 27.5385 13.3059 27.5385C20.4127 27.5385 26.175 21.7781 26.175 14.6713C26.175 7.56443 20.4127 1.80408 13.3059 1.80408Z" fill="white"/>
</mask>
<g mask="url(#mask2_146_3287)">
<mask id="mask3_146_3287" style="mask-type:luminance" maskUnits="userSpaceOnUse" x="0" y="1" width="27" height="27">
<path d="M26.627 1.45227H0V27.5951H26.627V1.45227Z" fill="white"/>
</mask>
<g mask="url(#mask3_146_3287)">
<mask id="mask4_146_3287" style="mask-type:luminance" maskUnits="userSpaceOnUse" x="0" y="1" width="27" height="27">
<path d="M0.438721 1.80396H26.175V27.5383H0.438721V1.80396Z" fill="white"/>
</mask>
<g mask="url(#mask4_146_3287)">
<mask id="mask5_146_3287" style="mask-type:luminance" maskUnits="userSpaceOnUse" x="0" y="1" width="27" height="27">
<path d="M13.3059 1.80396C6.19908 1.80396 0.438721 7.56431 0.438721 14.6711C0.438721 21.778 6.19908 27.5383 13.3059 27.5383C20.4127 27.5383 26.175 21.778 26.175 14.6711C26.175 7.56431 20.4127 1.80396 13.3059 1.80396Z" fill="white"/>
</mask>
<g mask="url(#mask5_146_3287)">
<path d="M0.438721 1.80396H26.175V27.5383H0.438721V1.80396Z" fill="white"/>
</g>
</g>
</g>
</g>
</g>
<path d="M7.66543 10.8597C7.72595 9.3581 8.21953 8.19695 9.14807 7.37999C10.0747 6.56302 11.3361 6.15454 12.9303 6.15454C13.9837 6.15454 14.8857 6.33987 15.6384 6.70675C16.3948 7.06984 16.966 7.5691 17.3555 8.20452C17.7432 8.83615 17.938 9.54721 17.938 10.3377C17.938 11.2662 17.7054 12.0227 17.2421 12.607C16.7769 13.1933 16.236 13.5904 15.6157 13.8022V13.8854C16.4175 14.154 17.0492 14.5965 17.5144 15.2168C17.9777 15.8371 18.2103 16.6314 18.2103 17.5996C18.2103 18.4771 18.008 19.2524 17.6052 19.9219C17.2061 20.5876 16.6237 21.1133 15.8578 21.4953C15.09 21.8735 14.1785 22.0627 13.1194 22.0627C11.4288 22.0627 10.0804 21.6466 9.07242 20.8145C8.06257 19.9824 7.53116 18.7305 7.47632 17.055H10.9862C11.0014 17.6753 11.1772 18.1651 11.5158 18.5225C11.8524 18.8818 12.3441 19.0596 12.9908 19.0596C13.5393 19.0596 13.9666 18.9007 14.2692 18.583C14.5718 18.2653 14.7231 17.8473 14.7231 17.3273C14.7231 16.6522 14.5075 16.1624 14.0801 15.8598C13.6508 15.5572 12.9644 15.4059 12.0226 15.4059H11.3418V12.4709H12.0226C12.7374 12.4709 13.318 12.348 13.7624 12.1002C14.2049 11.8544 14.4281 11.4119 14.4281 10.7764C14.4281 10.2734 14.2862 9.88005 14.0045 9.59638C13.7208 9.3146 13.335 9.17277 12.8471 9.17277C12.3119 9.17277 11.9129 9.3373 11.6519 9.66446C11.389 9.98784 11.2378 10.3869 11.198 10.8597H7.66543Z" fill="black"/>
</g>
</svg>
