<svg width="27" height="31" viewBox="0 0 27 31" fill="none" xmlns="http://www.w3.org/2000/svg">
<mask id="mask0_146_3318" style="mask-type:luminance" maskUnits="userSpaceOnUse" x="0" y="0" width="27" height="31">
<path d="M26.627 0H0V30.0159H26.627V0Z" fill="white"/>
</mask>
<g mask="url(#mask0_146_3318)">
<mask id="mask1_146_3318" style="mask-type:luminance" maskUnits="userSpaceOnUse" x="0" y="2" width="27" height="26">
<path d="M0.404785 2.00647H26.1392V27.7427H0.404785V2.00647Z" fill="white"/>
</mask>
<g mask="url(#mask1_146_3318)">
<mask id="mask2_146_3318" style="mask-type:luminance" maskUnits="userSpaceOnUse" x="0" y="2" width="27" height="26">
<path d="M13.272 2.00647C6.16514 2.00647 0.404785 7.76872 0.404785 14.8755C0.404785 21.9824 6.16514 27.7427 13.272 27.7427C20.3788 27.7427 26.1392 21.9824 26.1392 14.8755C26.1392 7.76872 20.3788 2.00647 13.272 2.00647Z" fill="white"/>
</mask>
<g mask="url(#mask2_146_3318)">
<mask id="mask3_146_3318" style="mask-type:luminance" maskUnits="userSpaceOnUse" x="0" y="1" width="27" height="28">
<path d="M26.1429 1.93652H0V28.0794H26.1429V1.93652Z" fill="white"/>
</mask>
<g mask="url(#mask3_146_3318)">
<mask id="mask4_146_3318" style="mask-type:luminance" maskUnits="userSpaceOnUse" x="0" y="2" width="27" height="26">
<path d="M0.404785 2.00647H26.1392V27.7427H0.404785V2.00647Z" fill="white"/>
</mask>
<g mask="url(#mask4_146_3318)">
<mask id="mask5_146_3318" style="mask-type:luminance" maskUnits="userSpaceOnUse" x="0" y="2" width="27" height="26">
<path d="M13.272 2.00647C6.16514 2.00647 0.404785 7.76872 0.404785 14.8755C0.404785 21.9824 6.16514 27.7427 13.272 27.7427C20.3788 27.7427 26.1392 21.9824 26.1392 14.8755C26.1392 7.76872 20.3788 2.00647 13.272 2.00647Z" fill="white"/>
</mask>
<g mask="url(#mask5_146_3318)">
<path d="M0.404785 2.00647H26.1392V27.7427H0.404785V2.00647Z" fill="white"/>
</g>
</g>
</g>
</g>
</g>
<path d="M7.38208 19.3919V16.472L14.054 6.92566H18.0934V16.2678H19.8257V19.3919H18.0934V22.1378H14.4776V19.3919H7.38208ZM14.7348 10.897L11.187 16.2678H14.7348V10.897Z" fill="black"/>
</g>
</svg>
