<svg width="27" height="31" viewBox="0 0 27 31" fill="none" xmlns="http://www.w3.org/2000/svg">
<mask id="mask0_146_3349" style="mask-type:luminance" maskUnits="userSpaceOnUse" x="0" y="0" width="27" height="31">
<path d="M26.627 0H0V30.0159H26.627V0Z" fill="white"/>
</mask>
<g mask="url(#mask0_146_3349)">
<mask id="mask1_146_3349" style="mask-type:luminance" maskUnits="userSpaceOnUse" x="0" y="1" width="27" height="27">
<path d="M0.421631 1.72656H26.156V27.4628H0.421631V1.72656Z" fill="white"/>
</mask>
<g mask="url(#mask1_146_3349)">
<mask id="mask2_146_3349" style="mask-type:luminance" maskUnits="userSpaceOnUse" x="0" y="1" width="27" height="27">
<path d="M13.2888 1.72656C6.18199 1.72656 0.421631 7.48881 0.421631 14.5938C0.421631 21.7006 6.18199 27.4628 13.2888 27.4628C20.3957 27.4628 26.156 21.7006 26.156 14.5938C26.156 7.48881 20.3957 1.72656 13.2888 1.72656Z" fill="white"/>
</mask>
<g mask="url(#mask2_146_3349)">
<mask id="mask3_146_3349" style="mask-type:luminance" maskUnits="userSpaceOnUse" x="0" y="1" width="27" height="27">
<path d="M26.627 1.45239H0V27.5952H26.627V1.45239Z" fill="white"/>
</mask>
<g mask="url(#mask3_146_3349)">
<mask id="mask4_146_3349" style="mask-type:luminance" maskUnits="userSpaceOnUse" x="0" y="1" width="27" height="27">
<path d="M0.421631 1.72656H26.156V27.4628H0.421631V1.72656Z" fill="white"/>
</mask>
<g mask="url(#mask4_146_3349)">
<mask id="mask5_146_3349" style="mask-type:luminance" maskUnits="userSpaceOnUse" x="0" y="1" width="27" height="27">
<path d="M13.2888 1.72656C6.18199 1.72656 0.421631 7.48881 0.421631 14.5938C0.421631 21.7006 6.18199 27.4628 13.2888 27.4628C20.3957 27.4628 26.156 21.7006 26.156 14.5938C26.156 7.48881 20.3957 1.72656 13.2888 1.72656Z" fill="white"/>
</mask>
<g mask="url(#mask5_146_3349)">
<path d="M0.421631 1.72656H26.156V27.4628H0.421631V1.72656Z" fill="white"/>
</g>
</g>
</g>
</g>
</g>
<path d="M18.1704 9.58041H11.5817V12.5003C11.8635 12.1883 12.2569 11.933 12.7618 11.7363C13.2705 11.5396 13.8208 11.4413 14.4109 11.4413C15.4699 11.4413 16.3474 11.6814 17.0433 12.1599C17.7392 12.6402 18.2479 13.2605 18.5713 14.0208C18.8985 14.7829 19.063 15.6074 19.063 16.4943C19.063 18.1396 18.5959 19.4445 17.6636 20.4127C16.735 21.3772 15.4264 21.8576 13.7376 21.8576C12.6067 21.8576 11.6271 21.6647 10.795 21.2751C9.96672 20.8874 9.32752 20.3503 8.87365 19.6639C8.42356 18.9736 8.17961 18.1774 8.13989 17.2735H11.6649C11.75 17.7122 11.9543 18.0753 12.2777 18.3628C12.5992 18.6502 13.0436 18.7939 13.609 18.7939C14.269 18.7939 14.7607 18.5821 15.0841 18.1585C15.4113 17.7349 15.5758 17.1733 15.5758 16.4717C15.5758 15.7814 15.4056 15.2538 15.069 14.8907C14.7304 14.5238 14.2369 14.3385 13.5863 14.3385C13.106 14.3385 12.7107 14.4557 12.3987 14.6864C12.0904 14.919 11.8881 15.2235 11.7935 15.6017H8.30631V6.41089H18.1704V9.58041Z" fill="black"/>
</g>
</svg>
