<svg width="27" height="31" viewBox="0 0 27 31" fill="none" xmlns="http://www.w3.org/2000/svg">
<mask id="mask0_146_3380" style="mask-type:luminance" maskUnits="userSpaceOnUse" x="0" y="0" width="27" height="31">
<path d="M26.1429 0H0V30.0159H26.1429V0Z" fill="white"/>
</mask>
<g mask="url(#mask0_146_3380)">
<mask id="mask1_146_3380" style="mask-type:luminance" maskUnits="userSpaceOnUse" x="0" y="1" width="27" height="27">
<path d="M0.317627 1.97253H26.052V27.7069H0.317627V1.97253Z" fill="white"/>
</mask>
<g mask="url(#mask1_146_3380)">
<mask id="mask2_146_3380" style="mask-type:luminance" maskUnits="userSpaceOnUse" x="0" y="1" width="27" height="27">
<path d="M13.1848 1.97253C6.07798 1.97253 0.317627 7.73289 0.317627 14.8397C0.317627 21.9466 6.07798 27.7069 13.1848 27.7069C20.2916 27.7069 26.052 21.9466 26.052 14.8397C26.052 7.73289 20.2916 1.97253 13.1848 1.97253Z" fill="white"/>
</mask>
<g mask="url(#mask2_146_3380)">
<mask id="mask3_146_3380" style="mask-type:luminance" maskUnits="userSpaceOnUse" x="0" y="1" width="27" height="28">
<path d="M26.1429 1.93665H0V28.0795H26.1429V1.93665Z" fill="white"/>
</mask>
<g mask="url(#mask3_146_3380)">
<mask id="mask4_146_3380" style="mask-type:luminance" maskUnits="userSpaceOnUse" x="0" y="1" width="27" height="27">
<path d="M0.317627 1.97253H26.052V27.7069H0.317627V1.97253Z" fill="white"/>
</mask>
<g mask="url(#mask4_146_3380)">
<mask id="mask5_146_3380" style="mask-type:luminance" maskUnits="userSpaceOnUse" x="0" y="1" width="27" height="27">
<path d="M13.1848 1.97253C6.07798 1.97253 0.317627 7.73289 0.317627 14.8397C0.317627 21.9466 6.07798 27.7069 13.1848 27.7069C20.2916 27.7069 26.052 21.9466 26.052 14.8397C26.052 7.73289 20.2916 1.97253 13.1848 1.97253Z" fill="white"/>
</mask>
<g mask="url(#mask5_146_3380)">
<path d="M0.317627 1.97253H26.052V27.7069H0.317627V1.97253Z" fill="white"/>
</g>
</g>
</g>
</g>
</g>
<path d="M14.8373 10.839C14.7258 10.3208 14.5291 9.93128 14.2473 9.67408C13.9636 9.41311 13.5627 9.28073 13.0446 9.28073C12.237 9.28073 11.6565 9.6287 11.3047 10.3246C10.9568 11.0206 10.7752 12.1231 10.7601 13.6303C11.0664 13.1367 11.5127 12.7509 12.099 12.4729C12.6834 12.1912 13.3282 12.0493 14.0355 12.0493C15.416 12.0493 16.5261 12.4862 17.3639 13.358C18.1998 14.2317 18.6196 15.4496 18.6196 17.0116C18.6196 18.0404 18.4097 18.9444 17.9917 19.7197C17.5776 20.4913 16.9724 21.0965 16.1763 21.5352C15.3839 21.9702 14.444 22.1857 13.3547 22.1857C11.1856 22.1857 9.67836 21.5087 8.83114 20.1509C7.9877 18.7893 7.56787 16.8358 7.56787 14.2884C7.56787 11.6106 8.01418 9.62113 8.90678 8.32004C9.80318 7.01517 11.2385 6.36084 13.211 6.36084C14.2643 6.36084 15.155 6.57075 15.8812 6.98869C16.6074 7.40285 17.1559 7.94749 17.5303 8.62262C17.9028 9.29964 18.1241 10.0372 18.196 10.839H14.8373ZM13.1656 14.9011C12.5604 14.9011 12.0555 15.0808 11.6527 15.4382C11.2537 15.7975 11.0551 16.3062 11.0551 16.9662C11.0551 17.6433 11.2404 18.1728 11.6149 18.5548C11.9874 18.933 12.5188 19.1221 13.211 19.1221C13.8313 19.1221 14.3192 18.9368 14.6785 18.5624C15.0359 18.1898 15.2156 17.6811 15.2156 17.0343C15.2156 16.3687 15.0378 15.8467 14.6861 15.4685C14.3381 15.0903 13.8313 14.9011 13.1656 14.9011Z" fill="black"/>
</g>
</svg>
