<svg width="27" height="31" viewBox="0 0 27 31" fill="none" xmlns="http://www.w3.org/2000/svg">
<mask id="mask0_146_3535" style="mask-type:luminance" maskUnits="userSpaceOnUse" x="0" y="0" width="27" height="31">
<path d="M26.1429 0H0V30.0159H26.1429V0Z" fill="white"/>
</mask>
<g mask="url(#mask0_146_3535)">
<mask id="mask1_146_3535" style="mask-type:luminance" maskUnits="userSpaceOnUse" x="0" y="1" width="26" height="27">
<path d="M0.240234 1.90625H25.9765V27.6406H0.240234V1.90625Z" fill="white"/>
</mask>
<g mask="url(#mask1_146_3535)">
<mask id="mask2_146_3535" style="mask-type:luminance" maskUnits="userSpaceOnUse" x="0" y="1" width="26" height="27">
<path d="M13.1074 1.90625C6.00059 1.90625 0.240234 7.66661 0.240234 14.7734C0.240234 21.8803 6.00059 27.6406 13.1074 27.6406C20.2143 27.6406 25.9765 21.8803 25.9765 14.7734C25.9765 7.66661 20.2143 1.90625 13.1074 1.90625Z" fill="white"/>
</mask>
<g mask="url(#mask2_146_3535)">
<mask id="mask3_146_3535" style="mask-type:luminance" maskUnits="userSpaceOnUse" x="0" y="1" width="27" height="28">
<path d="M26.1429 1.45239H0V28.0794H26.1429V1.45239Z" fill="white"/>
</mask>
<g mask="url(#mask3_146_3535)">
<mask id="mask4_146_3535" style="mask-type:luminance" maskUnits="userSpaceOnUse" x="0" y="1" width="26" height="27">
<path d="M0.240234 1.90625H25.9765V27.6406H0.240234V1.90625Z" fill="white"/>
</mask>
<g mask="url(#mask4_146_3535)">
<mask id="mask5_146_3535" style="mask-type:luminance" maskUnits="userSpaceOnUse" x="0" y="1" width="26" height="27">
<path d="M13.1074 1.90625C6.00059 1.90625 0.240234 7.66661 0.240234 14.7734C0.240234 21.8803 6.00059 27.6406 13.1074 27.6406C20.2143 27.6406 25.9765 21.8803 25.9765 14.7734C25.9765 7.66661 20.2143 1.90625 13.1074 1.90625Z" fill="white"/>
</mask>
<g mask="url(#mask5_146_3535)">
<path d="M0.240234 1.90625H25.9765V27.6406H0.240234V1.90625Z" fill="white"/>
</g>
</g>
</g>
</g>
</g>
<path d="M17.9262 9.32089L12.6235 22.0368H8.92443L14.2952 9.72181H7.72168V6.6355H17.9262V9.32089Z" fill="black"/>
</g>
</svg>
