<svg width="22" height="31" viewBox="0 0 22 31" fill="none" xmlns="http://www.w3.org/2000/svg">
<mask id="mask0_146_3473" style="mask-type:luminance" maskUnits="userSpaceOnUse" x="0" y="0" width="22" height="31">
<path d="M21.3016 0H0V30.0159H21.3016V0Z" fill="white"/>
</mask>
<g mask="url(#mask0_146_3473)">
<mask id="mask1_146_3473" style="mask-type:luminance" maskUnits="userSpaceOnUse" x="0" y="4" width="22" height="22">
<path d="M0.359375 4.63892H21.1333V25.4129H0.359375V4.63892Z" fill="white"/>
</mask>
<g mask="url(#mask1_146_3473)">
<mask id="mask2_146_3473" style="mask-type:luminance" maskUnits="userSpaceOnUse" x="0" y="4" width="22" height="22">
<path d="M10.7473 4.63892C5.00964 4.63892 0.359375 9.28918 0.359375 15.025C0.359375 20.7626 5.00964 25.4129 10.7473 25.4129C16.4831 25.4129 21.1333 20.7626 21.1333 15.025C21.1333 9.28918 16.4831 4.63892 10.7473 4.63892Z" fill="white"/>
</mask>
<g mask="url(#mask2_146_3473)">
<mask id="mask3_146_3473" style="mask-type:luminance" maskUnits="userSpaceOnUse" x="0" y="4" width="22" height="22">
<path d="M21.3016 4.35718H0V25.6588H21.3016V4.35718Z" fill="white"/>
</mask>
<g mask="url(#mask3_146_3473)">
<mask id="mask4_146_3473" style="mask-type:luminance" maskUnits="userSpaceOnUse" x="0" y="4" width="22" height="22">
<path d="M0.359375 4.63892H21.1333V25.4129H0.359375V4.63892Z" fill="white"/>
</mask>
<g mask="url(#mask4_146_3473)">
<mask id="mask5_146_3473" style="mask-type:luminance" maskUnits="userSpaceOnUse" x="0" y="4" width="22" height="22">
<path d="M10.7473 4.63892C5.00964 4.63892 0.359375 9.28918 0.359375 15.025C0.359375 20.7626 5.00964 25.4129 10.7473 25.4129C16.4831 25.4129 21.1333 20.7626 21.1333 15.025C21.1333 9.28918 16.4831 4.63892 10.7473 4.63892Z" fill="white"/>
</mask>
<g mask="url(#mask5_146_3473)">
<path d="M0.359375 4.63892H21.1333V25.4129H0.359375V4.63892Z" fill="white"/>
</g>
</g>
</g>
</g>
</g>
<path d="M7.28273 13.6771C5.95517 12.9717 5.29327 11.8673 5.29327 10.3638C5.29327 9.60361 5.48995 8.90957 5.8833 8.28361C6.28044 7.65387 6.88182 7.15272 7.68365 6.77828C8.48549 6.40573 9.47076 6.21851 10.6414 6.21851C11.8101 6.21851 12.7916 6.40573 13.584 6.77828C14.3801 7.15272 14.9758 7.65387 15.3692 8.28361C15.7663 8.90957 15.9668 9.60361 15.9668 10.3638C15.9668 11.1203 15.7852 11.7822 15.4221 12.3457C15.0628 12.9112 14.5825 13.3556 13.9773 13.6771C14.7375 14.0459 15.3238 14.5508 15.7323 15.19C16.1407 15.8311 16.345 16.58 16.345 17.4366C16.345 18.4408 16.0897 19.3051 15.581 20.0313C15.076 20.7537 14.3896 21.3059 13.5234 21.6879C12.6554 22.0661 11.6947 22.2552 10.6414 22.2552C9.58234 22.2552 8.61787 22.0661 7.75173 21.6879C6.88938 21.3059 6.2029 20.7537 5.69419 20.0313C5.18926 19.3051 4.93774 18.4408 4.93774 17.4366C4.93774 16.5648 5.14199 15.8084 5.55047 15.1673C5.95895 14.5281 6.53574 14.0307 7.28273 13.6771ZM12.4568 10.9085C12.4568 10.3336 12.2904 9.88728 11.9576 9.56957C11.6285 9.25186 11.1898 9.09301 10.6414 9.09301C10.091 9.09301 9.65042 9.25754 9.31758 9.5847C8.98853 9.90808 8.82589 10.3563 8.82589 10.9312C8.82589 11.4815 8.9942 11.9146 9.33271 12.2323C9.66933 12.55 10.1062 12.7088 10.6414 12.7088C11.1747 12.7088 11.6115 12.5481 11.95 12.2247C12.2866 11.8975 12.4568 11.4588 12.4568 10.9085ZM10.6414 15.2429C9.97947 15.2429 9.44618 15.4226 9.03769 15.78C8.62921 16.1393 8.42497 16.6348 8.42497 17.2702C8.42497 17.8602 8.62354 18.3482 9.02257 18.7302C9.42537 19.1084 9.96434 19.2975 10.6414 19.2975C11.3165 19.2975 11.8479 19.1084 12.2375 18.7302C12.6252 18.3482 12.8199 17.8602 12.8199 17.2702C12.8199 16.6499 12.6176 16.1582 12.2148 15.7951C11.8101 15.4283 11.2862 15.2429 10.6414 15.2429Z" fill="black"/>
</g>
</svg>
