<svg width="252" height="133" viewBox="0 0 252 133" fill="none" xmlns="http://www.w3.org/2000/svg">
<rect x="1" y="1" width="250" height="131" rx="40.08" fill="#EEF8FA" stroke="#7F99C9" stroke-width="2"/>
<path d="M42.7543 93V75.5455H53.2884V77.4205H44.8679V83.3182H52.7429V85.1932H44.8679V91.125H53.4247V93H42.7543ZM66.098 82.8409L64.2912 83.3523C64.1776 83.0511 64.0099 82.7585 63.7884 82.4744C63.5724 82.1847 63.277 81.946 62.902 81.7585C62.527 81.571 62.0469 81.4773 61.4616 81.4773C60.6605 81.4773 59.9929 81.6619 59.4588 82.0312C58.9304 82.3949 58.6662 82.858 58.6662 83.4205C58.6662 83.9205 58.848 84.3153 59.2116 84.6051C59.5753 84.8949 60.1435 85.1364 60.9162 85.3295L62.8594 85.8068C64.0298 86.0909 64.902 86.5256 65.4759 87.1108C66.0497 87.6903 66.3366 88.4375 66.3366 89.3523C66.3366 90.1023 66.1207 90.7727 65.6889 91.3636C65.2628 91.9545 64.6662 92.4205 63.8991 92.7614C63.1321 93.1023 62.2401 93.2727 61.223 93.2727C59.8878 93.2727 58.7827 92.983 57.9077 92.4034C57.0327 91.8239 56.4787 90.9773 56.2457 89.8636L58.1548 89.3864C58.3366 90.0909 58.6804 90.6193 59.1861 90.9716C59.6974 91.3239 60.3651 91.5 61.1889 91.5C62.1264 91.5 62.8707 91.3011 63.4219 90.9034C63.9787 90.5 64.2571 90.017 64.2571 89.4545C64.2571 89 64.098 88.6193 63.7798 88.3125C63.4616 88 62.973 87.767 62.3139 87.6136L60.1321 87.1023C58.9332 86.8182 58.0526 86.3778 57.4901 85.7812C56.9332 85.179 56.6548 84.4261 56.6548 83.5227C56.6548 82.7841 56.8622 82.1307 57.277 81.5625C57.6974 80.9943 58.2685 80.5483 58.9901 80.2244C59.7173 79.9006 60.5412 79.7386 61.4616 79.7386C62.7571 79.7386 63.7741 80.0227 64.5128 80.5909C65.2571 81.1591 65.7855 81.9091 66.098 82.8409ZM75.0575 79.9091V81.6136H68.2734V79.9091H75.0575ZM70.2507 76.7727H72.2621V89.25C72.2621 89.8182 72.3445 90.2443 72.5092 90.5284C72.6797 90.8068 72.8956 90.9943 73.157 91.0909C73.424 91.1818 73.7053 91.2273 74.0007 91.2273C74.2223 91.2273 74.4041 91.2159 74.5462 91.1932C74.6882 91.1648 74.8018 91.142 74.8871 91.125L75.2962 92.9318C75.1598 92.983 74.9695 93.0341 74.7251 93.0852C74.4808 93.142 74.1712 93.1705 73.7962 93.1705C73.228 93.1705 72.6712 93.0483 72.1257 92.804C71.5859 92.5597 71.1371 92.1875 70.7791 91.6875C70.4268 91.1875 70.2507 90.5568 70.2507 89.7955V76.7727ZM83.4311 93.2727C82.1697 93.2727 81.0817 92.9943 80.1669 92.4375C79.2578 91.875 78.5561 91.0909 78.0618 90.0852C77.5732 89.0739 77.3288 87.8977 77.3288 86.5568C77.3288 85.2159 77.5732 84.0341 78.0618 83.0114C78.5561 81.983 79.2436 81.1818 80.1243 80.608C81.0107 80.0284 82.0447 79.7386 83.2266 79.7386C83.9084 79.7386 84.5817 79.8523 85.2464 80.0795C85.9112 80.3068 86.5163 80.6761 87.0618 81.1875C87.6072 81.6932 88.0419 82.3636 88.3658 83.1989C88.6896 84.0341 88.8516 85.0625 88.8516 86.2841V87.1364H78.7607V85.3977H86.8061C86.8061 84.6591 86.6584 84 86.3629 83.4205C86.0732 82.8409 85.6584 82.3835 85.1186 82.0483C84.5845 81.7131 83.9538 81.5455 83.2266 81.5455C82.4254 81.5455 81.7322 81.7443 81.147 82.142C80.5675 82.5341 80.1214 83.0455 79.8089 83.6761C79.4964 84.3068 79.3402 84.983 79.3402 85.7045V86.8636C79.3402 87.8523 79.5107 88.6903 79.8516 89.3778C80.1982 90.0597 80.6783 90.5795 81.2919 90.9375C81.9055 91.2898 82.6186 91.4659 83.4311 91.4659C83.9595 91.4659 84.4368 91.392 84.8629 91.2443C85.2947 91.0909 85.6669 90.8636 85.9794 90.5625C86.2919 90.2557 86.5334 89.875 86.7038 89.4205L88.647 89.9659C88.4425 90.625 88.0987 91.2045 87.6158 91.7045C87.1328 92.1989 86.5362 92.5852 85.826 92.8636C85.1158 93.1364 84.3175 93.2727 83.4311 93.2727ZM82.2038 78.1364L84.2834 74.1818H86.6357L83.9766 78.1364H82.2038ZM97.6044 79.9091V81.6136H90.8203V79.9091H97.6044ZM92.7976 76.7727H94.8089V89.25C94.8089 89.8182 94.8913 90.2443 95.0561 90.5284C95.2266 90.8068 95.4425 90.9943 95.7038 91.0909C95.9709 91.1818 96.2521 91.2273 96.5476 91.2273C96.7692 91.2273 96.951 91.2159 97.093 91.1932C97.2351 91.1648 97.3487 91.142 97.4339 91.125L97.843 92.9318C97.7067 92.983 97.5163 93.0341 97.272 93.0852C97.0277 93.142 96.718 93.1705 96.343 93.1705C95.7749 93.1705 95.218 93.0483 94.6726 92.804C94.1328 92.5597 93.6839 92.1875 93.326 91.6875C92.9737 91.1875 92.7976 90.5568 92.7976 89.7955V76.7727ZM100.63 93V79.9091H102.641V93H100.63ZM101.653 77.7273C101.261 77.7273 100.923 77.5938 100.638 77.3267C100.36 77.0597 100.221 76.7386 100.221 76.3636C100.221 75.9886 100.36 75.6676 100.638 75.4006C100.923 75.1335 101.261 75 101.653 75C102.045 75 102.38 75.1335 102.658 75.4006C102.942 75.6676 103.085 75.9886 103.085 76.3636C103.085 76.7386 102.942 77.0597 102.658 77.3267C102.38 77.5938 102.045 77.7273 101.653 77.7273ZM111.643 93.2727C110.416 93.2727 109.359 92.983 108.473 92.4034C107.587 91.8239 106.905 91.0256 106.428 90.0085C105.95 88.9915 105.712 87.8295 105.712 86.5227C105.712 85.1932 105.956 84.0199 106.445 83.0028C106.939 81.9801 107.626 81.1818 108.507 80.608C109.393 80.0284 110.428 79.7386 111.609 79.7386C112.53 79.7386 113.359 79.9091 114.098 80.25C114.837 80.5909 115.442 81.0682 115.913 81.6818C116.385 82.2955 116.678 83.0114 116.791 83.8295H114.78C114.626 83.233 114.286 82.7045 113.757 82.2443C113.234 81.7784 112.53 81.5455 111.643 81.5455C110.859 81.5455 110.172 81.75 109.581 82.1591C108.996 82.5625 108.538 83.1335 108.209 83.8722C107.885 84.6051 107.723 85.4659 107.723 86.4545C107.723 87.4659 107.882 88.3466 108.2 89.0966C108.524 89.8466 108.979 90.429 109.564 90.8438C110.155 91.2585 110.848 91.4659 111.643 91.4659C112.166 91.4659 112.641 91.375 113.067 91.1932C113.493 91.0114 113.854 90.75 114.149 90.4091C114.445 90.0682 114.655 89.6591 114.78 89.1818H116.791C116.678 89.9545 116.396 90.6506 115.947 91.2699C115.504 91.8835 114.916 92.3722 114.183 92.7358C113.456 93.0938 112.609 93.2727 111.643 93.2727ZM123.584 93.3068C122.754 93.3068 122.001 93.1506 121.325 92.8381C120.649 92.5199 120.112 92.0625 119.714 91.4659C119.317 90.8636 119.118 90.1364 119.118 89.2841C119.118 88.5341 119.266 87.9261 119.561 87.4602C119.857 86.9886 120.251 86.6193 120.746 86.3523C121.24 86.0852 121.786 85.8864 122.382 85.7557C122.984 85.6193 123.589 85.5114 124.197 85.4318C124.993 85.3295 125.638 85.2528 126.132 85.2017C126.632 85.1449 126.996 85.0511 127.223 84.9205C127.456 84.7898 127.572 84.5625 127.572 84.2386V84.1705C127.572 83.3295 127.342 82.6761 126.882 82.2102C126.428 81.7443 125.737 81.5114 124.811 81.5114C123.851 81.5114 123.098 81.7216 122.553 82.142C122.007 82.5625 121.624 83.0114 121.402 83.4886L119.493 82.8068C119.834 82.0114 120.288 81.392 120.857 80.9489C121.43 80.5 122.055 80.1875 122.732 80.0114C123.413 79.8295 124.084 79.7386 124.743 79.7386C125.163 79.7386 125.646 79.7898 126.192 79.892C126.743 79.9886 127.274 80.1903 127.786 80.4972C128.303 80.804 128.732 81.267 129.072 81.8864C129.413 82.5057 129.584 83.3352 129.584 84.375V93H127.572V91.2273H127.47C127.334 91.5114 127.107 91.8153 126.788 92.1392C126.47 92.4631 126.047 92.7386 125.518 92.9659C124.99 93.1932 124.345 93.3068 123.584 93.3068ZM123.891 91.5C124.686 91.5 125.357 91.3438 125.902 91.0312C126.453 90.7188 126.868 90.3153 127.146 89.821C127.43 89.3267 127.572 88.8068 127.572 88.2614V86.4205C127.487 86.5227 127.3 86.6165 127.01 86.7017C126.726 86.7812 126.396 86.8523 126.021 86.9148C125.652 86.9716 125.291 87.0227 124.939 87.0682C124.592 87.108 124.311 87.142 124.095 87.1705C123.572 87.2386 123.084 87.3494 122.629 87.5028C122.18 87.6506 121.817 87.875 121.538 88.1761C121.266 88.4716 121.129 88.875 121.129 89.3864C121.129 90.0852 121.388 90.6136 121.905 90.9716C122.428 91.3239 123.089 91.5 123.891 91.5ZM145.664 93H140.278V75.5455H145.903C147.596 75.5455 149.045 75.8949 150.249 76.5938C151.454 77.2869 152.377 78.2841 153.019 79.5852C153.661 80.8807 153.982 82.4318 153.982 84.2386C153.982 86.0568 153.658 87.6222 153.011 88.9347C152.363 90.2415 151.42 91.2472 150.181 91.9517C148.942 92.6506 147.437 93 145.664 93ZM142.391 91.125H145.528C146.971 91.125 148.167 90.8466 149.116 90.2898C150.065 89.733 150.772 88.9403 151.238 87.9119C151.704 86.8835 151.937 85.6591 151.937 84.2386C151.937 82.8295 151.707 81.6165 151.246 80.5994C150.786 79.5767 150.099 78.7926 149.184 78.2472C148.269 77.696 147.13 77.4205 145.766 77.4205H142.391V91.125ZM162.744 93.2727C161.482 93.2727 160.394 92.9943 159.479 92.4375C158.57 91.875 157.869 91.0909 157.374 90.0852C156.886 89.0739 156.641 87.8977 156.641 86.5568C156.641 85.2159 156.886 84.0341 157.374 83.0114C157.869 81.983 158.556 81.1818 159.437 80.608C160.323 80.0284 161.357 79.7386 162.539 79.7386C163.221 79.7386 163.894 79.8523 164.559 80.0795C165.224 80.3068 165.829 80.6761 166.374 81.1875C166.92 81.6932 167.354 82.3636 167.678 83.1989C168.002 84.0341 168.164 85.0625 168.164 86.2841V87.1364H158.073V85.3977H166.119C166.119 84.6591 165.971 84 165.675 83.4205C165.386 82.8409 164.971 82.3835 164.431 82.0483C163.897 81.7131 163.266 81.5455 162.539 81.5455C161.738 81.5455 161.045 81.7443 160.46 82.142C159.88 82.5341 159.434 83.0455 159.121 83.6761C158.809 84.3068 158.653 84.983 158.653 85.7045V86.8636C158.653 87.8523 158.823 88.6903 159.164 89.3778C159.511 90.0597 159.991 90.5795 160.604 90.9375C161.218 91.2898 161.931 91.4659 162.744 91.4659C163.272 91.4659 163.749 91.392 164.175 91.2443C164.607 91.0909 164.979 90.8636 165.292 90.5625C165.604 90.2557 165.846 89.875 166.016 89.4205L167.96 89.9659C167.755 90.625 167.411 91.2045 166.928 91.7045C166.445 92.1989 165.849 92.5852 165.138 92.8636C164.428 93.1364 163.63 93.2727 162.744 93.2727ZM173.235 85.125V93H171.224V79.9091H173.167V81.9545H173.337C173.644 81.2898 174.11 80.7557 174.735 80.3523C175.36 79.9432 176.167 79.7386 177.156 79.7386C178.042 79.7386 178.817 79.9205 179.482 80.2841C180.147 80.642 180.664 81.1875 181.033 81.9205C181.403 82.6477 181.587 83.5682 181.587 84.6818V93H179.576V84.8182C179.576 83.7898 179.309 82.9886 178.775 82.4148C178.241 81.8352 177.508 81.5455 176.576 81.5455C175.934 81.5455 175.36 81.6847 174.854 81.9631C174.354 82.2415 173.96 82.6477 173.67 83.1818C173.38 83.7159 173.235 84.3636 173.235 85.125ZM190.956 79.9091V81.6136H184.172V79.9091H190.956ZM186.149 76.7727H188.161V89.25C188.161 89.8182 188.243 90.2443 188.408 90.5284C188.578 90.8068 188.794 90.9943 189.055 91.0909C189.322 91.1818 189.604 91.2273 189.899 91.2273C190.121 91.2273 190.303 91.2159 190.445 91.1932C190.587 91.1648 190.7 91.142 190.786 91.125L191.195 92.9318C191.058 92.983 190.868 93.0341 190.624 93.0852C190.379 93.142 190.07 93.1705 189.695 93.1705C189.126 93.1705 188.57 93.0483 188.024 92.804C187.484 92.5597 187.036 92.1875 186.678 91.6875C186.325 91.1875 186.149 90.5568 186.149 89.7955V76.7727ZM197.834 93.3068C197.004 93.3068 196.251 93.1506 195.575 92.8381C194.899 92.5199 194.362 92.0625 193.964 91.4659C193.567 90.8636 193.368 90.1364 193.368 89.2841C193.368 88.5341 193.516 87.9261 193.811 87.4602C194.107 86.9886 194.501 86.6193 194.996 86.3523C195.49 86.0852 196.036 85.8864 196.632 85.7557C197.234 85.6193 197.839 85.5114 198.447 85.4318C199.243 85.3295 199.888 85.2528 200.382 85.2017C200.882 85.1449 201.246 85.0511 201.473 84.9205C201.706 84.7898 201.822 84.5625 201.822 84.2386V84.1705C201.822 83.3295 201.592 82.6761 201.132 82.2102C200.678 81.7443 199.987 81.5114 199.061 81.5114C198.101 81.5114 197.348 81.7216 196.803 82.142C196.257 82.5625 195.874 83.0114 195.652 83.4886L193.743 82.8068C194.084 82.0114 194.538 81.392 195.107 80.9489C195.68 80.5 196.305 80.1875 196.982 80.0114C197.663 79.8295 198.334 79.7386 198.993 79.7386C199.413 79.7386 199.896 79.7898 200.442 79.892C200.993 79.9886 201.524 80.1903 202.036 80.4972C202.553 80.804 202.982 81.267 203.322 81.8864C203.663 82.5057 203.834 83.3352 203.834 84.375V93H201.822V91.2273H201.72C201.584 91.5114 201.357 91.8153 201.038 92.1392C200.72 92.4631 200.297 92.7386 199.768 92.9659C199.24 93.1932 198.595 93.3068 197.834 93.3068ZM198.141 91.5C198.936 91.5 199.607 91.3438 200.152 91.0312C200.703 90.7188 201.118 90.3153 201.396 89.821C201.68 89.3267 201.822 88.8068 201.822 88.2614V86.4205C201.737 86.5227 201.55 86.6165 201.26 86.7017C200.976 86.7812 200.646 86.8523 200.271 86.9148C199.902 86.9716 199.541 87.0227 199.189 87.0682C198.842 87.108 198.561 87.142 198.345 87.1705C197.822 87.2386 197.334 87.3494 196.879 87.5028C196.43 87.6506 196.067 87.875 195.788 88.1761C195.516 88.4716 195.379 88.875 195.379 89.3864C195.379 90.0852 195.638 90.6136 196.155 90.9716C196.678 91.3239 197.339 91.5 198.141 91.5ZM209.516 75.5455V93H207.505V75.5455H209.516Z" fill="#354F8B"/>
<path d="M160.156 33.1075H159.01C159.049 32.8375 159.095 32.5675 159.111 32.29C159.322 28.8175 157.855 25.57 155.281 23.815C151.631 21.3325 148.3 22.6 145.367 23.7175C144.182 24.1675 143.059 24.595 141.943 24.7975C141.896 24.805 141.865 24.8275 141.826 24.8425C141.499 24.715 141.155 24.58 140.82 24.4375C137.388 23.05 133.496 21.4825 129.822 23.8C127.825 25.06 126.452 27.3475 126.023 29.9425C125.618 27.4 124.3 25.165 122.311 23.815C118.66 21.3325 115.33 22.6 112.397 23.7175C111.211 24.1675 110.088 24.595 108.973 24.7975C108.926 24.805 108.895 24.8275 108.856 24.8425C108.528 24.715 108.185 24.58 107.849 24.4375C104.417 23.05 100.525 21.4825 96.8514 23.8C94.2852 25.42 92.733 28.72 92.9046 32.2225C92.9202 32.5225 92.9514 32.815 92.9904 33.1H91.8438C91.4148 33.1 91.0638 33.4375 91.0638 33.85C91.0638 34.2625 91.4148 34.6 91.8438 34.6H93.279C94.0044 37.0675 95.658 39.1375 98.0448 40.5025C97.6626 42.76 97.6236 49.0675 98.1618 53.2675C98.8482 58.6375 102.795 60.6025 104.542 60.6025C104.605 60.6025 104.667 60.6025 104.722 60.595C105.385 60.535 105.931 60.25 106.305 59.7625C107.023 58.81 107.077 57.1525 106.469 54.5275C105.86 51.9025 106.445 48.385 107.779 46.69C108.294 46.0375 108.887 45.685 109.534 45.655C109.542 45.655 109.573 45.655 109.581 45.655C110.228 45.685 110.821 46.0375 111.336 46.69C112.67 48.3775 113.255 51.895 112.646 54.5275C112.038 57.145 112.085 58.81 112.81 59.7625C113.177 60.25 113.723 60.5425 114.386 60.595C114.44 60.6025 114.503 60.6025 114.565 60.6025C116.312 60.6025 120.259 58.645 120.946 53.2675C121.484 49.0525 121.445 42.715 121.055 40.48C123.371 39.115 124.994 37.06 125.719 34.6H126.273C126.998 37.0675 128.652 39.1375 131.039 40.5025C130.657 42.76 130.618 49.0675 131.156 53.2675C131.842 58.6375 135.789 60.6025 137.536 60.6025C137.599 60.6025 137.661 60.6025 137.716 60.595C138.379 60.535 138.925 60.25 139.291 59.7625C140.009 58.81 140.063 57.1525 139.455 54.5275C138.847 51.9025 139.432 48.385 140.765 46.69C141.28 46.0375 141.873 45.685 142.52 45.655C142.528 45.655 142.559 45.655 142.567 45.655C143.215 45.685 143.807 46.0375 144.322 46.69C145.656 48.3775 146.241 51.895 145.633 54.5275C145.024 57.145 145.071 58.81 145.796 59.7625C146.171 60.25 146.717 60.5425 147.38 60.595C147.434 60.6025 147.497 60.6025 147.559 60.6025C149.306 60.6025 153.253 58.645 153.94 53.2675C154.478 49.0525 154.439 42.715 154.049 40.48C156.365 39.115 157.988 37.06 158.713 34.6H160.172C160.601 34.6 160.952 34.2625 160.952 33.85C160.936 33.445 160.585 33.1075 160.156 33.1075ZM130.664 25.0675C133.652 23.185 136.982 24.535 140.204 25.8325C141.678 26.425 143.074 26.9875 144.392 27.2275C144.814 27.3025 145.219 27.0325 145.305 26.6275C145.383 26.2225 145.102 25.8325 144.681 25.75C144.595 25.735 144.494 25.705 144.408 25.6825C144.923 25.5025 145.438 25.315 145.937 25.12C148.753 24.0475 151.42 23.035 154.376 25.045C156.482 26.4775 157.73 29.2825 157.551 32.2C157.535 32.5075 157.489 32.8075 157.442 33.1H148.558V30.2125C148.558 29.1475 147.653 28.2775 146.545 28.2775H139.042C137.934 28.2775 137.029 29.1475 137.029 30.2125V33.1H127.529C127.482 32.785 127.435 32.47 127.42 32.1475C127.279 29.23 128.582 26.38 130.664 25.0675ZM138.581 34.6075H140.469V35.3125C140.469 35.725 140.82 36.0625 141.249 36.0625H144.33C144.759 36.0625 145.11 35.725 145.11 35.3125V34.6075H146.998V37.4425C146.998 37.6825 146.795 37.8775 146.545 37.8775H139.042C138.792 37.8775 138.589 37.6825 138.589 37.4425V34.6075H138.581ZM145.11 33.1075V32.35C145.11 31.9375 144.759 31.6 144.33 31.6H141.249C140.82 31.6 140.469 31.9375 140.469 32.35V33.1075H138.581V30.22C138.581 29.98 138.784 29.785 139.034 29.785H146.537C146.787 29.785 146.99 29.98 146.99 30.22V33.1075H145.11ZM94.4412 32.1625C94.3008 29.23 95.6034 26.38 97.686 25.0675C100.666 23.185 104.004 24.535 107.225 25.8325C108.7 26.425 110.096 26.9875 111.414 27.2275C111.835 27.3025 112.241 27.0325 112.327 26.6275C112.405 26.2225 112.124 25.8325 111.703 25.75C111.617 25.735 111.515 25.705 111.43 25.6825C111.944 25.5025 112.459 25.315 112.958 25.12C115.774 24.0475 118.442 23.035 121.398 25.045C123.504 26.4775 124.752 29.2825 124.573 32.2C124.557 32.5075 124.51 32.8075 124.463 33.1H115.579V30.2125C115.579 29.1475 114.674 28.2775 113.567 28.2775H106.063C104.956 28.2775 104.051 29.1475 104.051 30.2125V33.1H94.5504C94.4958 32.8 94.4568 32.485 94.4412 32.1625ZM105.603 34.6075H107.491V35.3125C107.491 35.725 107.842 36.0625 108.271 36.0625H111.344C111.773 36.0625 112.124 35.725 112.124 35.3125V34.6075H114.011V37.4425C114.011 37.6825 113.809 37.8775 113.559 37.8775H106.055C105.806 37.8775 105.603 37.6825 105.603 37.4425V34.6075ZM112.132 33.1075V32.35C112.132 31.9375 111.781 31.6 111.352 31.6H108.278C107.849 31.6 107.498 31.9375 107.498 32.35V33.1075H105.611V30.22C105.611 29.98 105.814 29.785 106.063 29.785H113.567C113.816 29.785 114.019 29.98 114.019 30.22V33.1075H112.132ZM119.799 39.4675C119.549 39.595 119.417 39.8425 119.401 40.0975C119.401 40.12 119.393 40.135 119.393 40.1575C119.393 40.195 119.409 40.2325 119.417 40.2775C119.425 40.33 119.425 40.3825 119.448 40.435C119.768 41.2375 120.017 48.1075 119.386 53.0875C118.785 57.79 115.337 59.17 114.518 59.1025C114.245 59.08 114.136 58.975 114.058 58.8775C113.816 58.5625 113.512 57.625 114.16 54.8575C114.776 52.2175 114.425 48.145 112.568 45.79C111.773 44.7775 110.759 44.215 109.651 44.1625C109.612 44.1625 109.48 44.1625 109.441 44.1625C108.325 44.2225 107.319 44.785 106.523 45.79C104.667 48.145 104.316 52.2175 104.932 54.8575C105.58 57.625 105.275 58.5625 105.034 58.8775C104.956 58.975 104.846 59.08 104.573 59.1025C103.731 59.1775 100.307 57.7975 99.7062 53.0875C99.0744 48.1075 99.324 41.2375 99.636 40.4425C99.7686 40.1725 99.714 39.8725 99.5268 39.655C99.5268 39.655 99.5268 39.6475 99.519 39.6475C99.4644 39.5875 99.3942 39.535 99.3162 39.49C99.3006 39.4825 99.2928 39.4675 99.2772 39.46C99.2694 39.4525 99.2616 39.4525 99.2538 39.445C97.14 38.365 95.6424 36.6625 94.917 34.6075H104.035V37.4425C104.035 38.5075 104.94 39.3775 106.048 39.3775H113.551C114.659 39.3775 115.564 38.5075 115.564 37.4425V34.6075H124.073C123.356 36.6775 121.882 38.3875 119.799 39.4675ZM152.785 39.4675C152.536 39.595 152.403 39.8425 152.387 40.0975C152.387 40.12 152.38 40.135 152.38 40.1575C152.38 40.195 152.395 40.2325 152.403 40.2775C152.411 40.33 152.411 40.3825 152.434 40.435C152.754 41.2375 153.004 48.1075 152.372 53.0875C151.771 57.79 148.316 59.17 147.505 59.1025C147.232 59.08 147.122 58.975 147.044 58.8775C146.803 58.5625 146.498 57.625 147.146 54.8575C147.762 52.2175 147.411 48.145 145.555 45.79C144.759 44.7775 143.745 44.215 142.637 44.1625C142.598 44.1625 142.466 44.1625 142.427 44.1625C141.311 44.2225 140.305 44.785 139.51 45.79C137.653 48.145 137.302 52.2175 137.918 54.8575C138.566 57.625 138.262 58.5625 138.02 58.8775C137.95 58.975 137.833 59.08 137.56 59.1025C136.725 59.1775 133.293 57.7975 132.692 53.0875C132.061 48.1075 132.31 41.2375 132.622 40.4425C132.755 40.1725 132.7 39.865 132.513 39.6475C132.458 39.58 132.388 39.5275 132.302 39.4825C132.287 39.475 132.279 39.46 132.271 39.46C132.263 39.46 132.256 39.4525 132.248 39.445C132.248 39.445 132.24 39.445 132.24 39.4375C130.126 38.3575 128.629 36.655 127.903 34.6H137.021V37.435C137.021 38.5 137.926 39.37 139.034 39.37H146.537C147.645 39.37 148.55 38.5 148.55 37.435V34.6H157.06C156.342 36.6775 154.86 38.3875 152.785 39.4675Z" fill="#057CC5"/>
</svg>
