<svg width="252" height="133" viewBox="0 0 252 133" fill="none" xmlns="http://www.w3.org/2000/svg">
<rect x="1" y="1" width="250" height="131" rx="40.08" fill="#EEF8FA" stroke="#7F99C9" stroke-width="2"/>
<path d="M79.4308 84.2727C79.4308 86.1136 79.0984 87.7045 78.4336 89.0455C77.7688 90.3864 76.8569 91.4205 75.6978 92.1477C74.5387 92.875 73.2148 93.2386 71.7262 93.2386C70.2376 93.2386 68.9137 92.875 67.7546 92.1477C66.5955 91.4205 65.6836 90.3864 65.0188 89.0455C64.354 87.7045 64.0217 86.1136 64.0217 84.2727C64.0217 82.4318 64.354 80.8409 65.0188 79.5C65.6836 78.1591 66.5955 77.125 67.7546 76.3977C68.9137 75.6705 70.2376 75.3068 71.7262 75.3068C73.2148 75.3068 74.5387 75.6705 75.6978 76.3977C76.8569 77.125 77.7688 78.1591 78.4336 79.5C79.0984 80.8409 79.4308 82.4318 79.4308 84.2727ZM77.3853 84.2727C77.3853 82.7614 77.1325 81.4858 76.6268 80.446C76.1268 79.4062 75.4478 78.6193 74.5898 78.0852C73.7376 77.5511 72.783 77.2841 71.7262 77.2841C70.6694 77.2841 69.712 77.5511 68.854 78.0852C68.0018 78.6193 67.3228 79.4062 66.8171 80.446C66.3171 81.4858 66.0671 82.7614 66.0671 84.2727C66.0671 85.7841 66.3171 87.0597 66.8171 88.0994C67.3228 89.1392 68.0018 89.9261 68.854 90.4602C69.712 90.9943 70.6694 91.2614 71.7262 91.2614C72.783 91.2614 73.7376 90.9943 74.5898 90.4602C75.4478 89.9261 76.1268 89.1392 76.6268 88.0994C77.1325 87.0597 77.3853 85.7841 77.3853 84.2727ZM82.712 93V79.9091H84.6552V81.8864H84.7915C85.0302 81.2386 85.462 80.7131 86.087 80.3097C86.712 79.9062 87.4165 79.7045 88.2006 79.7045C88.3484 79.7045 88.533 79.7074 88.7546 79.7131C88.9762 79.7187 89.1438 79.7273 89.2575 79.7386V81.7841C89.1893 81.767 89.033 81.7415 88.7887 81.7074C88.5501 81.6676 88.2972 81.6477 88.0302 81.6477C87.3938 81.6477 86.8256 81.7812 86.3256 82.0483C85.8313 82.3097 85.4393 82.6733 85.1495 83.1392C84.8654 83.5994 84.7234 84.125 84.7234 84.7159V93H82.712ZM98.1552 79.9091V81.6136H91.3711V79.9091H98.1552ZM93.3484 76.7727H95.3597V89.25C95.3597 89.8182 95.4421 90.2443 95.6069 90.5284C95.7773 90.8068 95.9933 90.9943 96.2546 91.0909C96.5217 91.1818 96.8029 91.2273 97.0984 91.2273C97.32 91.2273 97.5018 91.2159 97.6438 91.1932C97.7859 91.1648 97.8995 91.142 97.9847 91.125L98.3938 92.9318C98.2575 92.983 98.0671 93.0341 97.8228 93.0852C97.5785 93.142 97.2688 93.1705 96.8938 93.1705C96.3256 93.1705 95.7688 93.0483 95.2234 92.804C94.6836 92.5597 94.2347 92.1875 93.8768 91.6875C93.5245 91.1875 93.3484 90.5568 93.3484 89.7955V76.7727ZM106.358 93.2727C105.176 93.2727 104.14 92.9915 103.248 92.429C102.361 91.8665 101.668 91.0795 101.168 90.0682C100.674 89.0568 100.426 87.875 100.426 86.5227C100.426 85.1591 100.674 83.9687 101.168 82.9517C101.668 81.9347 102.361 81.1449 103.248 80.5824C104.14 80.0199 105.176 79.7386 106.358 79.7386C107.54 79.7386 108.574 80.0199 109.461 80.5824C110.353 81.1449 111.046 81.9347 111.54 82.9517C112.04 83.9687 112.29 85.1591 112.29 86.5227C112.29 87.875 112.04 89.0568 111.54 90.0682C111.046 91.0795 110.353 91.8665 109.461 92.429C108.574 92.9915 107.54 93.2727 106.358 93.2727ZM106.358 91.4659C107.256 91.4659 107.995 91.2358 108.574 90.7756C109.154 90.3153 109.583 89.7102 109.861 88.9602C110.14 88.2102 110.279 87.3977 110.279 86.5227C110.279 85.6477 110.14 84.8324 109.861 84.0767C109.583 83.321 109.154 82.7102 108.574 82.2443C107.995 81.7784 107.256 81.5455 106.358 81.5455C105.461 81.5455 104.722 81.7784 104.142 82.2443C103.563 82.7102 103.134 83.321 102.855 84.0767C102.577 84.8324 102.438 85.6477 102.438 86.5227C102.438 87.3977 102.577 88.2102 102.855 88.9602C103.134 89.7102 103.563 90.3153 104.142 90.7756C104.722 91.2358 105.461 91.4659 106.358 91.4659ZM120.304 93.2727C119.213 93.2727 118.25 92.9972 117.414 92.446C116.579 91.8892 115.926 91.1051 115.454 90.0938C114.983 89.0767 114.747 87.875 114.747 86.4886C114.747 85.1136 114.983 83.9205 115.454 82.9091C115.926 81.8977 116.582 81.1165 117.423 80.5653C118.264 80.0142 119.235 79.7386 120.338 79.7386C121.19 79.7386 121.863 79.8807 122.358 80.1648C122.858 80.4432 123.238 80.7614 123.5 81.1193C123.767 81.4716 123.974 81.7614 124.122 81.9886H124.292V75.5455H126.304V93H124.36V90.9886H124.122C123.974 91.2273 123.764 91.5284 123.491 91.892C123.218 92.25 122.829 92.571 122.324 92.8551C121.818 93.1335 121.145 93.2727 120.304 93.2727ZM120.576 91.4659C121.383 91.4659 122.065 91.2557 122.622 90.8352C123.179 90.4091 123.602 89.821 123.892 89.071C124.181 88.3153 124.326 87.4432 124.326 86.4545C124.326 85.4773 124.184 84.6222 123.9 83.8892C123.616 83.1506 123.196 82.5767 122.639 82.1676C122.082 81.7528 121.395 81.5455 120.576 81.5455C119.724 81.5455 119.014 81.7642 118.446 82.2017C117.883 82.6335 117.46 83.2216 117.176 83.9659C116.897 84.7045 116.758 85.5341 116.758 86.4545C116.758 87.3864 116.9 88.233 117.184 88.9943C117.474 89.75 117.9 90.3523 118.463 90.8011C119.031 91.2443 119.735 91.4659 120.576 91.4659ZM135.585 93.2727C134.403 93.2727 133.366 92.9915 132.474 92.429C131.588 91.8665 130.895 91.0795 130.395 90.0682C129.9 89.0568 129.653 87.875 129.653 86.5227C129.653 85.1591 129.9 83.9687 130.395 82.9517C130.895 81.9347 131.588 81.1449 132.474 80.5824C133.366 80.0199 134.403 79.7386 135.585 79.7386C136.767 79.7386 137.801 80.0199 138.687 80.5824C139.579 81.1449 140.272 81.9347 140.767 82.9517C141.267 83.9687 141.517 85.1591 141.517 86.5227C141.517 87.875 141.267 89.0568 140.767 90.0682C140.272 91.0795 139.579 91.8665 138.687 92.429C137.801 92.9915 136.767 93.2727 135.585 93.2727ZM135.585 91.4659C136.483 91.4659 137.221 91.2358 137.801 90.7756C138.38 90.3153 138.809 89.7102 139.088 88.9602C139.366 88.2102 139.505 87.3977 139.505 86.5227C139.505 85.6477 139.366 84.8324 139.088 84.0767C138.809 83.321 138.38 82.7102 137.801 82.2443C137.221 81.7784 136.483 81.5455 135.585 81.5455C134.687 81.5455 133.949 81.7784 133.369 82.2443C132.789 82.7102 132.36 83.321 132.082 84.0767C131.804 84.8324 131.664 85.6477 131.664 86.5227C131.664 87.3977 131.804 88.2102 132.082 88.9602C132.36 89.7102 132.789 90.3153 133.369 90.7756C133.949 91.2358 134.687 91.4659 135.585 91.4659ZM146.598 85.125V93H144.587V79.9091H146.53V81.9545H146.701C147.007 81.2898 147.473 80.7557 148.098 80.3523C148.723 79.9432 149.53 79.7386 150.519 79.7386C151.405 79.7386 152.181 79.9205 152.846 80.2841C153.51 80.642 154.027 81.1875 154.397 81.9205C154.766 82.6477 154.951 83.5682 154.951 84.6818V93H152.939V84.8182C152.939 83.7898 152.672 82.9886 152.138 82.4148C151.604 81.8352 150.871 81.5455 149.939 81.5455C149.297 81.5455 148.723 81.6847 148.218 81.9631C147.718 82.2415 147.323 82.6477 147.033 83.1818C146.743 83.7159 146.598 84.3636 146.598 85.125ZM163.944 93.2727C162.717 93.2727 161.66 92.983 160.774 92.4034C159.887 91.8239 159.206 91.0256 158.728 90.0085C158.251 88.9915 158.012 87.8295 158.012 86.5227C158.012 85.1932 158.257 84.0199 158.745 83.0028C159.24 81.9801 159.927 81.1818 160.808 80.608C161.694 80.0284 162.728 79.7386 163.91 79.7386C164.831 79.7386 165.66 79.9091 166.399 80.25C167.137 80.5909 167.743 81.0682 168.214 81.6818C168.686 82.2955 168.978 83.0114 169.092 83.8295H167.081C166.927 83.233 166.586 82.7045 166.058 82.2443C165.535 81.7784 164.831 81.5455 163.944 81.5455C163.16 81.5455 162.473 81.75 161.882 82.1591C161.297 82.5625 160.839 83.1335 160.51 83.8722C160.186 84.6051 160.024 85.4659 160.024 86.4545C160.024 87.4659 160.183 88.3466 160.501 89.0966C160.825 89.8466 161.279 90.429 161.865 90.8438C162.456 91.2585 163.149 91.4659 163.944 91.4659C164.467 91.4659 164.941 91.375 165.368 91.1932C165.794 91.0114 166.154 90.75 166.45 90.4091C166.745 90.0682 166.956 89.6591 167.081 89.1818H169.092C168.978 89.9545 168.697 90.6506 168.248 91.2699C167.805 91.8835 167.217 92.3722 166.484 92.7358C165.757 93.0938 164.91 93.2727 163.944 93.2727ZM172.032 93V79.9091H174.044V93H172.032ZM173.055 77.7273C172.663 77.7273 172.325 77.5938 172.041 77.3267C171.762 77.0597 171.623 76.7386 171.623 76.3636C171.623 75.9886 171.762 75.6676 172.041 75.4006C172.325 75.1335 172.663 75 173.055 75C173.447 75 173.782 75.1335 174.061 75.4006C174.345 75.6676 174.487 75.9886 174.487 76.3636C174.487 76.7386 174.345 77.0597 174.061 77.3267C173.782 77.5938 173.447 77.7273 173.055 77.7273ZM181.58 93.3068C180.75 93.3068 179.998 93.1506 179.321 92.8381C178.645 92.5199 178.108 92.0625 177.711 91.4659C177.313 90.8636 177.114 90.1364 177.114 89.2841C177.114 88.5341 177.262 87.9261 177.557 87.4602C177.853 86.9886 178.248 86.6193 178.742 86.3523C179.236 86.0852 179.782 85.8864 180.378 85.7557C180.98 85.6193 181.586 85.5114 182.194 85.4318C182.989 85.3295 183.634 85.2528 184.128 85.2017C184.628 85.1449 184.992 85.0511 185.219 84.9205C185.452 84.7898 185.569 84.5625 185.569 84.2386V84.1705C185.569 83.3295 185.338 82.6761 184.878 82.2102C184.424 81.7443 183.733 81.5114 182.807 81.5114C181.847 81.5114 181.094 81.7216 180.549 82.142C180.003 82.5625 179.62 83.0114 179.398 83.4886L177.489 82.8068C177.83 82.0114 178.284 81.392 178.853 80.9489C179.426 80.5 180.051 80.1875 180.728 80.0114C181.409 79.8295 182.08 79.7386 182.739 79.7386C183.159 79.7386 183.642 79.7898 184.188 79.892C184.739 79.9886 185.27 80.1903 185.782 80.4972C186.299 80.804 186.728 81.267 187.069 81.8864C187.409 82.5057 187.58 83.3352 187.58 84.375V93H185.569V91.2273H185.466C185.33 91.5114 185.103 91.8153 184.784 92.1392C184.466 92.4631 184.043 92.7386 183.515 92.9659C182.986 93.1932 182.341 93.3068 181.58 93.3068ZM181.887 91.5C182.682 91.5 183.353 91.3438 183.898 91.0312C184.449 90.7188 184.864 90.3153 185.142 89.821C185.426 89.3267 185.569 88.8068 185.569 88.2614V86.4205C185.483 86.5227 185.296 86.6165 185.006 86.7017C184.722 86.7812 184.392 86.8523 184.017 86.9148C183.648 86.9716 183.287 87.0227 182.935 87.0682C182.588 87.108 182.307 87.142 182.091 87.1705C181.569 87.2386 181.08 87.3494 180.625 87.5028C180.176 87.6506 179.813 87.875 179.534 88.1761C179.262 88.4716 179.125 88.875 179.125 89.3864C179.125 90.0852 179.384 90.6136 179.901 90.9716C180.424 91.3239 181.086 91.5 181.887 91.5Z" fill="#354F8B"/>
<g clip-path="url(#clip0_74_614)">
<path d="M150.281 52.2965H149.31C149.417 52.0283 149.543 51.7997 149.699 51.6273C152.067 49.0014 152.731 46.3677 151.987 42.5396C151.368 37.8613 145.376 35.6138 141.342 38.1873C139.73 37.6028 137.892 37.6029 136.28 38.1873C132.245 35.6144 126.254 37.8612 125.635 42.5397C124.891 46.3672 125.555 49.0014 127.923 51.6273C128.078 51.7997 128.205 52.0283 128.312 52.2965H122.805C122.5 52.2965 122.235 52.5065 122.166 52.8035C122.026 53.4042 121.93 54.0575 121.828 54.7491C121.367 57.886 120.89 61.1297 116.423 61.6845C115.983 61.7482 115.546 61.4052 115.506 60.9616L114.724 53.8463C114.646 53.1387 114.05 52.605 113.338 52.605H113.04C112.328 52.605 111.733 53.1387 111.655 53.8463L110.872 60.9617C110.848 61.1809 110.739 61.377 110.566 61.5138C110.393 61.6511 110.176 61.7117 109.956 61.6845C104.564 61.0045 105.015 56.5031 104.213 52.8035C104.143 52.5066 103.878 52.2965 103.573 52.2965H101.719C99.9095 52.2965 98.4375 53.7684 98.4375 55.5777V63.2812C98.4375 65.0905 99.9095 66.5625 101.719 66.5625H150.281C152.091 66.5625 153.562 65.0905 153.562 63.2812V55.5777C153.562 53.7684 152.091 52.2965 150.281 52.2965ZM126.927 42.7719C127.319 39.371 131.553 37.4617 134.792 38.8934C133.959 39.3422 133.241 39.7304 132.123 39.7304C131.761 39.7304 131.467 40.0243 131.467 40.3866C131.467 40.749 131.761 41.0429 132.123 41.0429C133.57 41.0429 134.506 40.5387 135.41 40.0511C135.755 39.8651 136.093 39.6832 136.461 39.5272C137.202 39.2057 138.004 39.0631 138.811 39.0659C139.617 39.0631 140.42 39.2057 141.161 39.5273C141.528 39.6833 141.866 39.8652 142.211 40.0511C143.116 40.5387 144.051 41.0429 145.499 41.0429C145.861 41.0429 146.155 40.749 146.155 40.3866C146.155 40.0243 145.861 39.7304 145.499 39.7304C144.381 39.7304 143.663 39.3422 142.83 38.8933C146.05 37.4685 150.276 39.3547 150.689 42.7322C151.365 46.1618 150.823 48.4294 148.724 50.7482C148.05 51.4776 147.768 52.7347 147.598 53.781C147.065 57.2592 146.867 61.2385 141.88 61.6885C141.621 61.6692 141.371 61.5172 141.24 61.2924C141.178 61.1927 141.141 61.0783 141.128 60.9615L140.345 53.8462C140.267 53.1385 139.672 52.6049 138.96 52.6049H138.662C137.95 52.6049 137.355 53.1385 137.277 53.8462L136.494 60.9615C136.47 61.1808 136.361 61.3769 136.188 61.5137C136.014 61.651 135.797 61.7116 135.577 61.6843C131.409 61.2664 130.563 58.0186 130.173 54.7487C130.074 54.0842 129.982 53.4378 129.83 52.7894C129.638 51.9788 129.366 51.2669 128.898 50.7482C126.81 48.4337 126.258 46.1974 126.927 42.7719H126.927ZM152.25 63.2811C152.25 64.3667 151.367 65.2499 150.281 65.2499H101.719C100.633 65.2499 99.75 64.3667 99.75 63.2811V55.5776C99.75 54.4921 100.633 53.6089 101.719 53.6089H103.04C103.717 57.3492 103.641 62.1026 109.794 62.9868C110.365 63.0579 110.929 62.9003 111.38 62.5433C111.831 62.1868 112.114 61.6759 112.177 61.1049L112.96 53.9896C112.964 53.9484 112.999 53.9173 113.04 53.9173H113.338C113.38 53.9173 113.414 53.9484 113.419 53.9896L114.202 61.1049C114.264 61.676 114.547 62.1869 114.998 62.5433C115.45 62.9002 116.013 63.0578 116.584 62.9867C122.739 62.1012 122.659 57.3507 123.339 53.6087H128.661C129.288 57.0524 129.239 61.3906 134.222 62.7645C135.173 62.9879 136.15 63.2327 137.001 62.5433C137.452 62.1869 137.736 61.676 137.798 61.1049L138.581 53.9896C138.586 53.9484 138.62 53.9173 138.662 53.9173H138.96C139.001 53.9173 139.036 53.9484 139.04 53.9896L139.823 61.1049C139.913 62.0103 140.635 62.8003 141.535 62.9634C141.839 63.0293 142.155 63.0013 142.458 62.9523C148.366 61.9573 148.289 57.2907 148.96 53.6089H150.281C151.366 53.6089 152.25 54.4921 152.25 55.5776V63.2811H152.25Z" fill="#057CC5"/>
<path d="M126.031 23.5303C125.418 23.5303 124.841 23.7693 124.407 24.2031C123.516 25.0582 123.516 26.5965 124.407 27.4514C125.851 28.8917 128.326 27.8659 128.328 25.8272C128.354 24.5927 127.266 23.5048 126.031 23.5303ZM126.727 26.5233C125.769 27.4114 124.448 26.0884 125.335 25.1312C126.293 24.2429 127.615 25.5661 126.727 26.5233H126.727Z" fill="#057CC5"/>
<path d="M145.81 20.8544C145.81 20.4919 145.516 20.1981 145.154 20.1981C144.285 20.2281 144.285 21.4808 145.154 21.5106C145.516 21.5106 145.81 21.2168 145.81 20.8544Z" fill="#057CC5"/>
<path d="M152.906 11.4374H152.376C152.246 11.4374 152.119 11.4759 152.011 11.548L134.074 23.5304H130.509C130.047 22.6158 129.239 21.8087 128.328 21.3514V17.7849L131.886 12.4582C132.18 12.0397 131.853 11.4251 131.341 11.4374H127.395C127.175 11.4374 126.971 11.5468 126.849 11.7291L124.121 15.8124C123.868 16.1913 123.735 16.6325 123.735 17.0883V21.3514C123.481 21.4813 123.236 21.6344 123.004 21.8101H120.011C116.918 21.8101 114.338 24.1372 113.942 27.1321C112.837 27.0308 111.699 27.1435 110.658 27.5313C109.538 26.8268 108.142 26.445 106.798 26.4494C103.348 26.4494 100.435 28.7841 100.013 31.8835C99.2693 35.7116 99.933 38.3453 102.301 40.9712C102.856 41.5857 103.048 42.8961 103.252 44.2835C103.647 47.4331 104.549 51.9238 110.062 52.3474C110.539 52.3474 111 52.1883 111.38 51.8873C111.831 51.5308 112.114 51.0199 112.177 50.4489L112.96 43.3336C112.964 43.2925 112.999 43.2613 113.04 43.2613H113.338C113.38 43.2613 113.414 43.2924 113.419 43.3336L114.201 50.4489C114.304 51.6014 115.439 52.4983 116.584 52.3307C122.043 51.6529 122.669 47.3936 123.126 44.2835C123.33 42.8961 123.523 41.5856 124.077 40.9711C125.107 39.8287 125.785 38.7285 126.194 37.5347C128.45 36.6308 130.048 34.4231 130.048 31.8477V28.8563C130.224 28.6246 130.377 28.3796 130.509 28.1241C130.509 28.1241 134.77 28.1241 134.77 28.1241C135.226 28.1241 135.667 27.9904 136.046 27.7373L143.34 22.865C144.043 22.3613 143.353 21.3149 142.611 21.7737L135.317 26.646C135.155 26.7544 134.966 26.8117 134.771 26.8117H130.967C131.098 26.1611 131.098 25.4935 130.967 24.843H134.273C134.403 24.843 134.529 24.8045 134.637 24.7324L152.25 12.9668V15.3344L146.976 18.8571C146.272 19.3621 146.964 20.4068 147.705 19.9485L153.271 16.2308C153.453 16.1091 153.562 15.9043 153.562 15.6851V12.0937C153.562 11.7313 153.269 11.4374 152.906 11.4374ZM129.477 24.4241C130.925 28.2153 126.338 31.259 123.404 28.4589C121.862 26.9477 121.977 24.334 123.652 22.97C125.553 21.3596 128.554 22.1119 129.477 24.4241ZM125.047 17.0883C125.047 16.8928 125.104 16.7037 125.213 16.5414L127.746 12.7499H130.113L127.126 17.2213C127.054 17.3293 127.016 17.456 127.016 17.5858V20.8915C126.365 20.7609 125.697 20.7609 125.047 20.8915V17.0883H125.047ZM120.011 23.1226H121.786C121.13 24.1491 120.864 25.3888 121.057 26.5963C119.261 26.234 117.263 26.5437 115.715 27.5297C115.558 27.4728 115.396 27.4184 115.233 27.3716C115.514 24.986 117.558 23.1226 120.011 23.1226ZM124.61 37.9342C122.988 40.94 122.427 39.6238 121.828 44.0927C121.367 47.2296 120.89 50.4735 116.423 51.0282C115.982 51.0918 115.546 50.749 115.506 50.3053L114.724 43.19C114.646 42.4824 114.05 41.9488 113.338 41.9488H113.04C112.328 41.9488 111.733 42.4824 111.655 43.19L110.872 50.3054C110.833 50.7482 110.396 51.0927 109.956 51.0282C105.489 50.4735 105.012 47.2296 104.551 44.0925C104.317 42.503 104.096 41.0016 103.276 40.092C101.178 37.7735 100.635 35.5055 101.312 32.0761C101.725 28.7018 105.948 26.8103 109.17 28.2372C108.338 28.686 107.619 29.0742 106.502 29.0742C106.139 29.0742 105.845 29.368 105.845 29.7304C105.845 30.0928 106.139 30.3867 106.502 30.3867C107.949 30.3867 108.884 29.8824 109.789 29.3948C110.133 29.209 110.471 29.0273 110.838 28.8713C111.58 28.5496 112.383 28.4069 113.189 28.4097C113.991 28.4034 114.81 28.5604 115.541 28.8716C115.908 29.0276 116.245 29.2091 116.59 29.3948C117.494 29.8824 118.43 30.3867 119.877 30.3867C120.239 30.3867 120.533 30.0928 120.533 29.7304C120.533 29.368 120.239 29.0742 119.877 29.0742C118.759 29.0742 118.041 28.686 117.208 28.2372C118.572 27.6556 120.117 27.6194 121.543 28.1031C121.944 28.8945 122.562 29.5762 123.307 30.0574C123.376 32.1005 123.23 33.7539 122.38 35.5663C121.85 36.6645 122.706 37.9916 123.924 37.9727C124.154 37.9736 124.382 37.9566 124.61 37.9342H124.61ZM125.421 36.4205C124.938 36.5791 124.431 36.6588 123.924 36.6602C123.63 36.6529 123.457 36.3728 123.571 36.1192C123.788 35.6523 123.972 35.1738 124.122 34.6856C124.533 33.3867 124.667 32.0225 124.625 30.6564C126.007 31.056 127.504 30.8536 128.736 30.0687V31.8477C128.736 33.9786 127.343 35.7895 125.421 36.4205Z" fill="#057CC5"/>
</g>
<defs>
<clipPath id="clip0_74_614">
<rect width="56" height="56" fill="white" transform="translate(98 11)"/>
</clipPath>
</defs>
</svg>
